# xmcd
#
# Track frame offsets:
# 150
# 17697
# 30765
# 47400
# 63156
# 75380
# 88619
# 111338
# 129597
# 143704
# 167974
# 193706
# 205708
# 218523
# 237636
#
# Disc length: 3424 seconds
#
#
# Revision: 1
# Processed by: cddbd v1.5.1PL0 Copyright (c) Steve Scherf et al.
# Submitted via: FreeRIP 2.942 
#
DISCID=bf0d5e0f
DTITLE=Various Artist - Blue Night CD1 Jazz Standard
DYEAR=1900
DGENRE=Jazz
TTITLE0=55 Stan Getz - Serenade in blue
TTITLE1=60 Mel Torme - Born to be blue
TTITLE2=69 Phil Desmond - Circles
TTITLE3=63 Shirley Horn - Go away little boy
TTITLE4=65 Chet Baker - The Touch of your lips
TTITLE5=58 Serge Gainsbourg, Alan Gorrguer and his Orchestra - Ce mortel ennui
TTITLE6=55 Dinah Washington - Easy Living
TTITLE7=66 Wes Montgomery - Sunny
TTITLE8=55 Helen Merrill - Anything goes
TTITLE9=57 Coleman Hawkins, Ben Webster  - Tangerine
TTITLE10=62 Oscar Peterson - Bag's groove
TTITLE11=63 Damita Jo - Romance in the dark
TTITLE12=66 Chris Montez - The Day will come
TTITLE13=64 Bill Evans - Time  remembered
TTITLE14=62 John Coltrane Quartet - Say it over and over again
EXTD=
EXTT0=
EXTT1=
EXTT2=
EXTT3=
EXTT4=
EXTT5=
EXTT6=
EXTT7=
EXTT8=
EXTT9=
EXTT10=
EXTT11=
EXTT12=
EXTT13=
EXTT14=
PLAYORDER=
